<svg width="12" height="12" viewBox="0 0 12 12" fill="none" xmlns="http://www.w3.org/2000/svg">
<rect width="12" height="12" rx="6" fill="#FFD466"/>
<g clip-path="url(#clip0_10925_1401)">
<path d="M3.66671 6.33334H7.39004L5.76337 7.96C5.63337 8.09 5.63337 8.30334 5.76337 8.43334C5.89337 8.56334 6.10337 8.56334 6.23337 8.43334L8.43004 6.23667C8.56004 6.10667 8.56004 5.89667 8.43004 5.76667L6.23671 3.56667C6.10671 3.43667 5.89671 3.43667 5.76671 3.56667C5.63671 3.69667 5.63671 3.90667 5.76671 4.03667L7.39004 5.66667H3.66671C3.48337 5.66667 3.33337 5.81667 3.33337 6C3.33337 6.18334 3.48337 6.33334 3.66671 6.33334Z" fill="white"/>
</g>
<defs>
<clipPath id="clip0_10925_1401">
<rect width="8" height="8" fill="white" transform="translate(2 2)"/>
</clipPath>
</defs>
</svg>
