<svg width="20" height="20" viewBox="0 0 20 20" fill="none" xmlns="http://www.w3.org/2000/svg">
<g clip-path="url(#clip0_10925_356)">
<rect width="20" height="20" rx="10" fill="#F2F9FF"/>
<g clip-path="url(#clip1_10925_356)">
<path d="M10.44 6.52527C12.03 6.72527 13.275 7.97027 13.475 9.56027C13.505 9.81527 13.72 10.0003 13.97 10.0003C13.99 10.0003 14.01 10.0003 14.03 9.99527C14.305 9.96027 14.5 9.71027 14.465 9.43527C14.21 7.39027 12.605 5.78527 10.56 5.53027C10.285 5.50027 10.035 5.69527 10.005 5.97027C9.97002 6.24527 10.165 6.49527 10.44 6.52527ZM10.63 7.58027C10.365 7.51027 10.09 7.67027 10.02 7.94027C9.95002 8.21027 10.11 8.48027 10.38 8.55027C10.905 8.68527 11.315 9.09527 11.455 9.62527C11.515 9.85027 11.715 10.0003 11.94 10.0003C11.98 10.0003 12.025 9.99527 12.065 9.98527C12.33 9.91527 12.49 9.64027 12.425 9.37527C12.19 8.49027 11.505 7.80527 10.63 7.58027ZM13.615 11.6303L12.345 11.4853C12.04 11.4503 11.74 11.5553 11.525 11.7703L10.605 12.6903C9.19002 11.9703 8.03002 10.8153 7.31002 9.39527L8.23502 8.47027C8.45002 8.25527 8.55502 7.95527 8.52002 7.65027L8.37502 6.39027C8.31502 5.88527 7.89002 5.50527 7.38002 5.50527H6.51502C5.95002 5.50527 5.48002 5.97527 5.51502 6.54027C5.78002 10.8103 9.19502 14.2203 13.46 14.4853C14.025 14.5203 14.495 14.0503 14.495 13.4853V12.6203C14.5 12.1153 14.12 11.6903 13.615 11.6303Z" fill="#5576AA"/>
</g>
</g>
<defs>
<clipPath id="clip0_10925_356">
<rect width="20" height="20" rx="10" fill="white"/>
</clipPath>
<clipPath id="clip1_10925_356">
<rect width="12" height="12" fill="white" transform="translate(4 4)"/>
</clipPath>
</defs>
</svg>
