<svg width="16" height="16" viewBox="0 0 16 16" fill="none" xmlns="http://www.w3.org/2000/svg">
<g clip-path="url(#clip0_8211_328880)">
<path d="M12.2001 3.80636C11.9401 3.54636 11.5201 3.54636 11.2601 3.80636L8.0001 7.05969L4.7401 3.79969C4.4801 3.53969 4.0601 3.53969 3.8001 3.79969C3.5401 4.05969 3.5401 4.47969 3.8001 4.73969L7.0601 7.99969L3.8001 11.2597C3.5401 11.5197 3.5401 11.9397 3.8001 12.1997C4.0601 12.4597 4.4801 12.4597 4.7401 12.1997L8.0001 8.93969L11.2601 12.1997C11.5201 12.4597 11.9401 12.4597 12.2001 12.1997C12.4601 11.9397 12.4601 11.5197 12.2001 11.2597L8.9401 7.99969L12.2001 4.73969C12.4534 4.48636 12.4534 4.05969 12.2001 3.80636Z" fill="#5576AA"/>
</g>
<defs>
<clipPath id="clip0_8211_328880">
<rect width="16" height="16" fill="white"/>
</clipPath>
</defs>
</svg>
