<svg width="12" height="12" viewBox="0 0 12 12" fill="none" xmlns="http://www.w3.org/2000/svg">
<rect width="12" height="12" rx="3" fill="#F2F9FF"/>
<g clip-path="url(#clip0_10925_367)">
<path d="M8.66675 3.99987H6.00008L5.53008 3.52987C5.40341 3.4032 5.23341 3.3332 5.05675 3.3332H3.33341C2.96675 3.3332 2.67008 3.6332 2.67008 3.99987L2.66675 7.99987C2.66675 8.36654 2.96675 8.66654 3.33341 8.66654H8.66675C9.03341 8.66654 9.33341 8.36654 9.33341 7.99987V4.66654C9.33341 4.29987 9.03341 3.99987 8.66675 3.99987ZM8.33341 7.99987H3.66675C3.48341 7.99987 3.33341 7.84987 3.33341 7.66654V4.99987C3.33341 4.81654 3.48341 4.66654 3.66675 4.66654H8.33341C8.51675 4.66654 8.66675 4.81654 8.66675 4.99987V7.66654C8.66675 7.84987 8.51675 7.99987 8.33341 7.99987Z" fill="#5576AA"/>
</g>
<defs>
<clipPath id="clip0_10925_367">
<rect width="8" height="8" fill="white" transform="translate(2 2)"/>
</clipPath>
</defs>
</svg>
