<svg width="32" height="32" viewBox="0 0 32 32" fill="none" xmlns="http://www.w3.org/2000/svg">
<rect width="32" height="32" rx="10" fill="#F9FCFF"/>
<g clip-path="url(#clip0_10925_2037)">
<path d="M21 21.8333H11C10.5417 21.8333 10.1667 21.4583 10.1667 21V11C10.1667 10.5417 10.5417 10.1667 11 10.1667H15.1667C15.625 10.1667 16 9.79167 16 9.33333C16 8.875 15.625 8.5 15.1667 8.5H10.1667C9.24167 8.5 8.5 9.25 8.5 10.1667V21.8333C8.5 22.75 9.25 23.5 10.1667 23.5H21.8333C22.75 23.5 23.5 22.75 23.5 21.8333V16.8333C23.5 16.375 23.125 16 22.6667 16C22.2083 16 21.8333 16.375 21.8333 16.8333V21C21.8333 21.4583 21.4583 21.8333 21 21.8333ZM17.6667 9.33333C17.6667 9.79167 18.0417 10.1667 18.5 10.1667H20.6583L13.05 17.775C12.725 18.1 12.725 18.625 13.05 18.95C13.375 19.275 13.9 19.275 14.225 18.95L21.8333 11.3417V13.5C21.8333 13.9583 22.2083 14.3333 22.6667 14.3333C23.125 14.3333 23.5 13.9583 23.5 13.5V9.33333C23.5 8.875 23.125 8.5 22.6667 8.5H18.5C18.0417 8.5 17.6667 8.875 17.6667 9.33333Z" fill="#5576AA"/>
</g>
<defs>
<clipPath id="clip0_10925_2037">
<rect width="20" height="20" fill="white" transform="translate(6 6)"/>
</clipPath>
</defs>
</svg>
