<svg width="181" height="50" viewBox="0 0 181 50" fill="none" xmlns="http://www.w3.org/2000/svg">
<g clip-path="url(#clip0_8043_326393)">
<path fill-rule="evenodd" clip-rule="evenodd" d="M25.9413 41.2703C26.5011 40.9796 27.1637 41.3952 27.1637 42.0369V48.9851C27.1637 49.6268 26.5011 50.0424 25.9413 49.7517L20.8023 47.0833L15.6635 49.7517C15.1039 50.0424 14.4409 49.6268 14.4409 48.9851V42.0369C14.4409 41.3952 15.1039 40.9796 15.6635 41.2703L20.8023 43.9387L25.9413 41.2703ZM20.8024 0C22.5964 0 24.0507 1.45618 24.0507 3.25251C24.0507 4.56504 23.274 5.69515 22.1559 6.20905V10.8195H28.6806C35.5313 10.8195 41.1047 16.4001 41.1047 23.2595V26.568C41.1047 33.4274 35.5313 39.0079 28.6806 39.0079H12.9242C6.07354 39.0079 0.5 33.4274 0.5 26.568V23.2595C0.5 16.4001 6.07354 10.8195 12.9242 10.8195H19.4489V6.20905C18.3309 5.69515 17.554 4.56504 17.554 3.25251C17.554 1.45618 19.0083 0 20.8024 0ZM125.845 13.3774C127.486 13.3511 129.042 13.6337 130.512 14.2252C131.983 14.8169 133.243 15.6287 134.294 16.6605C135.344 17.6927 136.168 18.9284 136.765 20.3679C137.362 21.8074 137.648 23.3291 137.622 24.9329C137.648 26.5369 137.362 28.0584 136.765 29.4979C136.168 30.9375 135.344 32.17 134.294 33.1954C133.243 34.2207 131.983 35.0292 130.512 35.6208C129.042 36.2125 127.486 36.495 125.845 36.4688C124.203 36.495 122.648 36.2125 121.177 35.6208C119.707 35.0292 118.446 34.2207 117.396 33.1954C116.345 32.17 115.521 30.9375 114.924 29.4979C114.327 28.0584 114.041 26.5369 114.068 24.9329C114.041 23.3291 114.327 21.8074 114.924 20.3679C115.521 18.9284 116.345 17.6927 117.396 16.6605C118.446 15.6287 119.707 14.8169 121.177 14.2252C122.648 13.6337 124.203 13.3511 125.845 13.3774ZM62.5985 13.3773C63.9506 13.3773 65.1881 13.6601 66.3107 14.2253C67.4333 14.7907 68.3622 15.5992 69.0975 16.6508V13.9492H75.8724V35.9167H69.0975V33.1954C68.3622 34.2472 67.4333 35.0554 66.3107 35.6208C65.1881 36.1859 63.9506 36.4688 62.5985 36.4688C60.5763 36.4688 58.7513 35.9626 57.1233 34.9504C55.4952 33.9382 54.2283 32.5514 53.3223 30.7896C52.4164 29.0281 51.9634 27.0758 51.9634 24.9329C51.9634 22.7902 52.4164 20.838 53.3223 19.0762C54.2283 17.3147 55.4952 15.9244 57.1233 14.9056C58.7513 13.8869 60.5763 13.3773 62.5985 13.3773ZM85.4053 13.9492L89.2259 27.6344L93.0663 14.1858H99.2699L103.11 27.6344L106.931 13.9492H114.119L106.695 35.9167H99.8806L96.0794 23.8286L92.2982 35.9167H85.484L78.0593 13.9492H85.4053ZM152.699 13.5351C153.723 13.5351 154.596 13.6731 155.319 13.9493V20.1608C154.504 19.9113 153.586 19.7862 152.561 19.7862C150.907 19.7862 149.574 20.2627 148.563 21.2158C147.552 22.169 147.047 23.4474 147.047 25.0512V35.9166H140.272V13.9493H147.047V17.1634C147.546 16.0462 148.304 15.1619 149.322 14.5111C150.339 13.8604 151.465 13.5351 152.699 13.5351ZM164.981 5.41066V23.1385L172.327 13.9492H180.067L171.185 24.8935L180.5 35.9167H172.681L164.981 26.6288V35.9167H158.206V5.41066H164.981ZM28.6806 17.5956H12.9242C9.80011 17.5956 7.26745 20.1314 7.26745 23.2595V26.568C7.26745 29.6961 9.80011 32.2319 12.9242 32.2319H28.6806C31.8048 32.2319 34.3373 29.6961 34.3373 26.568V23.2595C34.3373 20.1314 31.8048 17.5956 28.6806 17.5956ZM63.7407 19.234C62.1651 19.234 60.8849 19.7697 59.9003 20.8411C58.9156 21.9127 58.4232 23.2765 58.4232 24.9329C58.4232 26.5894 58.9156 27.95 59.9003 29.0148C60.8849 30.0796 62.1651 30.6121 63.7407 30.6121C65.3163 30.6121 66.5964 30.0796 67.5811 29.0148C68.5657 27.95 69.0581 26.5894 69.0581 24.9329C69.0581 23.2765 68.5657 21.9127 67.5811 20.8411C66.5964 19.7697 65.3163 19.234 63.7407 19.234ZM125.845 19.3128C124.256 19.3128 122.972 19.8388 121.994 20.8904C121.016 21.9424 120.527 23.2897 120.527 24.9329C120.527 26.5764 121.016 27.9203 121.994 28.9655C122.972 30.0106 124.256 30.5332 125.845 30.5332C127.433 30.5332 128.717 30.0106 129.695 28.9655C130.673 27.9203 131.162 26.5764 131.162 24.9329C131.162 23.2897 130.673 21.9424 129.695 20.8904C128.717 19.8388 127.433 19.3128 125.845 19.3128ZM14.5763 21.6547C16.3704 21.6547 17.8247 23.1108 17.8247 24.9072C17.8247 26.7035 16.3704 28.1597 14.5763 28.1597C12.7823 28.1597 11.3279 26.7035 11.3279 24.9072C11.3279 23.1108 12.7823 21.6547 14.5763 21.6547ZM27.0284 21.6547C28.8225 21.6547 30.2768 23.1108 30.2768 24.9072C30.2768 26.7035 28.8225 28.1597 27.0284 28.1597C25.2344 28.1597 23.78 26.7035 23.78 24.9072C23.78 23.1108 25.2344 21.6547 27.0284 21.6547Z" fill="black"/>
</g>
<defs>
<clipPath id="clip0_8043_326393">
<rect width="180" height="49.8462" fill="white" transform="translate(0.5)"/>
</clipPath>
</defs>
</svg>
