<svg width="102" height="28" viewBox="0 0 102 28" fill="none" xmlns="http://www.w3.org/2000/svg">
<g clip-path="url(#clip0_10925_2034)">
<path fill-rule="evenodd" clip-rule="evenodd" d="M14.2911 23.1827C14.6055 23.0194 14.9778 23.2529 14.9778 23.6133V27.5163C14.9778 27.8768 14.6055 28.1102 14.2911 27.947L11.4044 26.448L8.51779 27.947C8.20341 28.1102 7.83102 27.8768 7.83102 27.5163V23.6133C7.83102 23.2529 8.20341 23.0194 8.51779 23.1827L11.4044 24.6816L14.2911 23.1827ZM11.4044 0C12.4122 0 13.2291 0.817976 13.2291 1.82703C13.2291 2.56431 12.7928 3.19913 12.1647 3.4878V6.07761H15.8299C19.6781 6.07761 22.8088 9.21241 22.8088 13.0655V14.924C22.8088 18.7771 19.6781 21.9119 15.8299 21.9119H6.97905C3.13082 21.9119 0 18.7771 0 14.924V13.0655C0 9.21241 3.13082 6.07761 6.97905 6.07761H10.6441V3.4878C10.0161 3.19913 9.57971 2.56431 9.57971 1.82703C9.57971 0.817976 10.3966 0 11.4044 0ZM70.4097 7.51447C71.3316 7.4997 72.2056 7.65842 73.0316 7.99071C73.8575 8.32308 74.5656 8.77908 75.1557 9.3587C75.7456 9.93848 76.2083 10.6326 76.544 11.4412C76.8795 12.2498 77.04 13.1046 77.0253 14.0055C77.04 14.9066 76.8795 15.7612 76.544 16.5698C76.2083 17.3784 75.7456 18.0708 75.1557 18.6468C74.5656 19.2228 73.8575 19.6769 73.0316 20.0092C72.2056 20.3416 71.3316 20.5003 70.4097 20.4855C69.4877 20.5003 68.6138 20.3416 67.7878 20.0092C66.9617 19.6769 66.2537 19.2228 65.6637 18.6468C65.0736 18.0708 64.6108 17.3784 64.2754 16.5698C63.9396 15.7612 63.7793 14.9066 63.7941 14.0055C63.7793 13.1046 63.9396 12.2498 64.2754 11.4412C64.6108 10.6326 65.0736 9.93848 65.6637 9.3587C66.2537 8.77908 66.9617 8.32308 67.7878 7.99071C68.6138 7.65842 69.4877 7.4997 70.4097 7.51447ZM34.8825 7.51441C35.642 7.51441 36.3371 7.67328 36.9677 7.99073C37.5983 8.30833 38.1201 8.7625 38.5332 9.35324V7.83566H42.3388V20.1754H38.5332V18.6468C38.1201 19.2376 37.5983 19.6916 36.9677 20.0092C36.3371 20.3267 35.642 20.4855 34.8825 20.4855C33.7466 20.4855 32.7214 20.2012 31.8069 19.6326C30.8924 19.064 30.1807 18.285 29.6718 17.2954C29.1629 16.3059 28.9085 15.2092 28.9085 14.0055C28.9085 12.8019 29.1629 11.7053 29.6718 10.7157C30.1807 9.72618 30.8924 8.9452 31.8069 8.37288C32.7214 7.80064 33.7466 7.51441 34.8825 7.51441ZM47.6937 7.83567L49.8399 15.523L51.9971 7.96858H55.4818L57.6392 15.523L59.7854 7.83567H63.8233L59.6527 20.1754H55.8249L53.6897 13.3852L51.5656 20.1754H47.7379L43.5673 7.83567H47.6937ZM85.4946 7.60306C86.0699 7.60306 86.5603 7.68055 86.966 7.8357V11.3249C86.5086 11.1847 85.9925 11.1145 85.4172 11.1145C84.4879 11.1145 83.7393 11.3821 83.1714 11.9175C82.6035 12.453 82.3196 13.1711 82.3196 14.072V20.1754H78.514V7.8357H82.3196V9.64118C82.5998 9.0136 83.0257 8.51688 83.5973 8.15132C84.1688 7.78576 84.8013 7.60306 85.4946 7.60306ZM92.3936 3.03932V12.9975L96.52 7.83565H100.868L95.8784 13.9834L101.111 20.1754H96.7192L92.3936 14.9582V20.1754H88.5879V3.03932H92.3936ZM15.8299 9.88392H6.97905C5.22413 9.88392 3.80147 11.3084 3.80147 13.0655V14.924C3.80147 16.6812 5.22413 18.1055 6.97905 18.1055H15.8299C17.5848 18.1055 19.0074 16.6812 19.0074 14.924V13.0655C19.0074 11.3084 17.5848 9.88392 15.8299 9.88392ZM35.5241 10.8043C34.639 10.8043 33.9199 11.1052 33.3668 11.7071C32.8137 12.309 32.5371 13.075 32.5371 14.0055C32.5371 14.936 32.8137 15.7003 33.3668 16.2985C33.9199 16.8966 34.639 17.1957 35.5241 17.1957C36.4091 17.1957 37.1282 16.8966 37.6813 16.2985C38.2345 15.7003 38.511 14.936 38.511 14.0055C38.511 13.075 38.2345 12.309 37.6813 11.7071C37.1282 11.1052 36.4091 10.8043 35.5241 10.8043ZM70.4097 10.8486C69.5172 10.8486 68.7962 11.144 68.2468 11.7348C67.6974 12.3256 67.4228 13.0825 67.4228 14.0055C67.4228 14.9287 67.6974 15.6836 68.2468 16.2707C68.7962 16.8578 69.5172 17.1514 70.4097 17.1514C71.302 17.1514 72.0229 16.8578 72.5725 16.2707C73.1218 15.6836 73.3967 14.9287 73.3967 14.0055C73.3967 13.0825 73.1218 12.3256 72.5725 11.7348C72.0229 11.144 71.302 10.8486 70.4097 10.8486ZM7.90706 12.164C8.91483 12.164 9.73177 12.982 9.73177 13.9911C9.73177 15.0001 8.91483 15.8181 7.90706 15.8181C6.89929 15.8181 6.08235 15.0001 6.08235 13.9911C6.08235 12.982 6.89929 12.164 7.90706 12.164ZM14.9018 12.164C15.9095 12.164 16.7265 12.982 16.7265 13.9911C16.7265 15.0001 15.9095 15.8181 14.9018 15.8181C13.894 15.8181 13.0771 15.0001 13.0771 13.9911C13.0771 12.982 13.894 12.164 14.9018 12.164Z" fill="black"/>
</g>
<defs>
<clipPath id="clip0_10925_2034">
<rect width="101.111" height="28" fill="white"/>
</clipPath>
</defs>
</svg>
