<svg width="20" height="20" viewBox="0 0 20 20" fill="none" xmlns="http://www.w3.org/2000/svg">
<g clip-path="url(#clip0_10931_1683)">
<path d="M12.9166 11.6662H12.2583L12.025 11.4412C13.025 10.2745 13.5416 8.68288 13.2583 6.99121C12.8666 4.67455 10.9333 2.82454 8.59997 2.54121C5.07497 2.10788 2.10831 5.07454 2.54164 8.59954C2.82497 10.9329 4.67497 12.8662 6.99164 13.2579C8.68331 13.5412 10.275 13.0245 11.4416 12.0245L11.6666 12.2579V12.9162L15.2083 16.4579C15.55 16.7995 16.1083 16.7995 16.45 16.4579C16.7916 16.1162 16.7916 15.5579 16.45 15.2162L12.9166 11.6662ZM7.91664 11.6662C5.84164 11.6662 4.16664 9.99121 4.16664 7.91621C4.16664 5.84121 5.84164 4.16621 7.91664 4.16621C9.99164 4.16621 11.6666 5.84121 11.6666 7.91621C11.6666 9.99121 9.99164 11.6662 7.91664 11.6662Z" fill="#5576AA"/>
</g>
<defs>
<clipPath id="clip0_10931_1683">
<rect width="20" height="20" fill="white"/>
</clipPath>
</defs>
</svg>
