<svg width="32" height="32" viewBox="0 0 32 32" fill="none" xmlns="http://www.w3.org/2000/svg">
<rect width="32" height="32" rx="10" fill="#F9FCFF"/>
<g clip-path="url(#clip0_10925_2042)">
<path d="M22.1917 16.817C22.225 16.5503 22.25 16.2837 22.25 16.0003C22.25 15.717 22.225 15.4503 22.1917 15.1837L23.95 13.8087C24.1083 13.6837 24.15 13.4587 24.05 13.2753L22.3833 10.392C22.2833 10.2087 22.0583 10.142 21.875 10.2087L19.8 11.042C19.3667 10.7087 18.9 10.4337 18.3917 10.2253L18.075 8.01699C18.05 7.81699 17.875 7.66699 17.6667 7.66699H14.3333C14.125 7.66699 13.95 7.81699 13.925 8.01699L13.6083 10.2253C13.1 10.4337 12.6333 10.717 12.2 11.042L10.125 10.2087C9.93332 10.1337 9.71666 10.2087 9.61666 10.392L7.94999 13.2753C7.84165 13.4587 7.89165 13.6837 8.04999 13.8087L9.80832 15.1837C9.77499 15.4503 9.74999 15.7253 9.74999 16.0003C9.74999 16.2753 9.77499 16.5503 9.80832 16.817L8.04999 18.192C7.89165 18.317 7.84999 18.542 7.94999 18.7253L9.61666 21.6087C9.71666 21.792 9.94165 21.8587 10.125 21.792L12.2 20.9587C12.6333 21.292 13.1 21.567 13.6083 21.7753L13.925 23.9837C13.95 24.1837 14.125 24.3337 14.3333 24.3337H17.6667C17.875 24.3337 18.05 24.1837 18.075 23.9837L18.3917 21.7753C18.9 21.567 19.3667 21.2837 19.8 20.9587L21.875 21.792C22.0667 21.867 22.2833 21.792 22.3833 21.6087L24.05 18.7253C24.15 18.542 24.1083 18.317 23.95 18.192L22.1917 16.817ZM16 18.917C14.3917 18.917 13.0833 17.6087 13.0833 16.0003C13.0833 14.392 14.3917 13.0837 16 13.0837C17.6083 13.0837 18.9167 14.392 18.9167 16.0003C18.9167 17.6087 17.6083 18.917 16 18.917Z" fill="#5576AA"/>
</g>
<defs>
<clipPath id="clip0_10925_2042">
<rect width="20" height="20" fill="white" transform="translate(6 6)"/>
</clipPath>
</defs>
</svg>
